<svg xmlns="http://www.w3.org/2000/svg" width="24" height="24" fill="none"><rect width="24" height="24" fill="#fff" rx="4"/><path fill="#F54900" fill-rule="evenodd" d="M7.5 15.937V17a.5.5 0 0 0 .5.5h7a1.5 1.5 0 0 0 1.5-1.5v-.401A3 3 0 0 1 15 16H8c-.173 0-.34-.021-.5-.063ZM6 14V7a2 2 0 0 1 2-2h7a3 3 0 0 1 3 3v8a3 3 0 0 1-3 3H8a2 2 0 0 1-2-2v-3Zm1.5 0a.5.5 0 0 0 .5.5h7a1.5 1.5 0 0 0 1.5-1.5V8A1.497 1.497 0 0 0 15 6.5H8a.5.5 0 0 0-.5.5v7Zm2-4.75a.75.75 0 0 1 .75-.75h3.5a.75.75 0 1 1 0 1.5h-3.5a.75.75 0 0 1-.75-.75Z" clip-rule="evenodd"/></svg>